<?xml version="1.0" encoding="UTF-8"?>
<svg xmlns="http://www.w3.org/2000/svg" width="1200" height="630" viewBox="0 0 1200 630" fill="none">
  <defs>
    <linearGradient id="bg" x1="0" y1="0" x2="0" y2="1" gradientUnits="objectBoundingBox">
      <stop stop-color="#2f2440"/>
      <stop offset="1" stop-color="#17111f"/>
    </linearGradient>
  </defs>
  <rect width="1200" height="630" rx="12" fill="url(#bg)"/>
  <rect x="1" y="1" width="1198" height="628" rx="11" stroke="#6d5f95" stroke-width="1" fill="none" opacity="0.45"/>
  <text x="600" y="72" text-anchor="middle" fill="#f4f1f8" font-family="sans-serif" font-size="48" font-weight="700">Event-Driven Serverless Walkthrough</text>
  <text x="600" y="118" text-anchor="middle" fill="#b8afc8" font-family="sans-serif" font-size="22">GeoNet RINEX → TEC processing → Amplify portal</text>
  <rect x="438" y="168" width="102" height="32" rx="16" fill="#3d3254" stroke="#6d5f95" stroke-width="1"/>
  <text x="489" y="189" text-anchor="middle" fill="#e8e0f4" font-family="sans-serif" font-size="14" font-weight="600">Ingest</text>
<rect x="552" y="168" width="146" height="32" rx="16" fill="#3d3254" stroke="#6d5f95" stroke-width="1"/>
  <text x="625" y="189" text-anchor="middle" fill="#e8e0f4" font-family="sans-serif" font-size="14" font-weight="600">Processing</text>
<rect x="710" y="168" width="102" height="32" rx="16" fill="#3d3254" stroke="#6d5f95" stroke-width="1"/>
  <text x="761" y="189" text-anchor="middle" fill="#e8e0f4" font-family="sans-serif" font-size="14" font-weight="600">Portal</text>
  <rect x="48" y="232" width="1104" height="454.625" rx="12" fill="#231a30" stroke="#6d5f95" stroke-width="1" opacity="0.6"/>
  <g transform="translate(48 248) scale(0.8625)">
    <rect x="16" y="28" width="108" height="134" rx="8" fill="#3d3254" stroke="#6d5f95" stroke-width="1"/>
  <text x="70" y="100" text-anchor="middle" fill="#e8e0f4" font-family="sans-serif" font-size="13" font-weight="600">Ingest</text>
<rect x="16" y="178" width="108" height="134" rx="8" fill="#3d3254" stroke="#6d5f95" stroke-width="1"/>
  <text x="70" y="250" text-anchor="middle" fill="#e8e0f4" font-family="sans-serif" font-size="13" font-weight="600">Processing</text>
<rect x="16" y="328" width="108" height="134" rx="8" fill="#3d3254" stroke="#6d5f95" stroke-width="1"/>
  <text x="70" y="400" text-anchor="middle" fill="#e8e0f4" font-family="sans-serif" font-size="13" font-weight="600">Presentation</text>
<line x1="315.5" y1="64" x2="512.5" y2="64" stroke="#6d5f95" stroke-width="2"/>
<polygon points="512.5,59 522.5,64 512.5,69" fill="#6d5f95"/>
<line x1="594.5" y1="64" x2="791.5" y2="64" stroke="#6d5f95" stroke-width="2"/>
<polygon points="791.5,59 801.5,64 791.5,69" fill="#6d5f95"/>
<line x1="873.5" y1="64" x2="1070.5" y2="64" stroke="#6d5f95" stroke-width="2"/>
<polygon points="1070.5,59 1080.5,64 1070.5,69" fill="#6d5f95"/>
<g transform="translate(251.5 36) scale(0.7)">
    <title>Icon-Architecture/64/Arch_AWS-Ground-Station_64</title>
    <g id="Icon-Architecture/64/Arch_AWS-Ground-Station_64" stroke="none" stroke-width="1" fill="none" fill-rule="evenodd">
        <g id="Icon-Architecture-BG/64/Satellite" fill="#C925D1">
            <rect id="Rectangle" x="0" y="0" width="80" height="80"></rect>
        </g>
        <path d="M33.9531943,64.9860515 L37.9610191,64.9860515 L37.9610191,44.846567 L33.9531943,44.846567 L33.9531943,64.9860515 Z M21.1131256,32.7628762 L27.7591011,32.7628762 C27.6178253,36.2006862 28.6348108,39.0433745 29.7429744,41.0804833 C24.5929195,38.2327602 21.6942602,35.4454556 21.1131256,32.7628762 L21.1131256,32.7628762 Z M35.2737726,28.7349793 L36.4450594,28.7349793 L37.5111408,30.7489278 L34.1225249,30.7489278 L35.2737726,28.7349793 Z M35.9571067,23.7142058 L36.9440336,24.7070824 L35.9571067,25.699959 L34.9701799,24.7070824 L35.9571067,23.7142058 Z M42.5770313,40.7491888 C43.7092419,38.7372543 44.7021804,36.015403 44.5869555,32.7628762 L49.7159693,32.7628762 C49.1137936,36.013389 45.7091464,38.8107634 42.5770313,40.7491888 L42.5770313,40.7491888 Z M36.9590629,32.7628762 L42.5790353,32.7628762 C42.7834343,38.047477 39.5070375,41.8457838 38.5531752,42.8326185 L36.9590629,42.8326185 L36.9590629,32.7628762 Z M33.3860871,42.8326185 C32.4803187,41.8125536 29.5245479,38.0484839 29.7680233,32.7628762 L34.9551505,32.7628762 L34.9551505,42.8326185 L33.3860871,42.8326185 Z M51.8140656,31.755902 C51.8140656,31.2000522 51.3661911,30.7489278 50.8121094,30.7489278 L39.7805716,30.7489278 L37.9319624,27.2547272 C37.8518059,27.105695 37.735579,26.986872 37.6003149,26.8952374 L38.6694022,25.8218029 C38.856768,25.6324917 38.9629753,25.3767202 38.9629753,25.1098721 L38.9629753,24.3042927 C38.9629753,24.0374445 38.856768,23.7816731 38.6694022,23.5923619 L37.0662722,21.9812031 C36.8789064,21.791892 36.6244096,21.6861597 36.3578892,21.6861597 L35.5553223,21.6861597 C35.2898039,21.6861597 35.035307,21.791892 34.8469393,21.9812031 L33.2448113,23.5923619 C33.0564435,23.7816731 32.9512381,24.0374445 32.9512381,24.3042927 L32.9512381,25.1098721 C32.9512381,25.3767202 33.0564435,25.6324917 33.2448113,25.8218029 L34.2497734,26.831798 C34.0764349,26.9194048 33.9261415,27.0513184 33.8249439,27.2265319 L31.811012,30.7489278 L20.0019562,30.7489278 C19.4478744,30.7489278 19,31.2000522 19,31.755902 C19,36.133219 23.2452884,40.2960504 31.9492819,44.4719726 L31.9492819,65.9930258 C31.9492819,66.5488755 32.3971564,67 32.9512381,67 L38.9629753,67 C39.5170571,67 39.9649315,66.5488755 39.9649315,65.9930258 L39.9649315,44.4729795 C44.6450689,42.1992317 51.8140656,37.7413568 51.8140656,31.755902 L51.8140656,31.755902 Z M42.881626,23.5913549 L41.0871225,24.487562 C40.0801565,22.4524671 38.0511952,21.1877075 35.791784,21.1877075 C33.5313708,21.1877075 31.5024095,22.4524671 30.4964454,24.487562 L28.7019419,23.5913549 C30.0475691,20.8664827 32.7648743,19.173759 35.791784,19.173759 C38.8166897,19.173759 41.5339949,20.8664827 42.881626,23.5913549 L42.881626,23.5913549 Z M43.8334844,23.1039794 C42.3014934,20.0176034 39.2204781,18.1003245 35.791784,18.1003245 C32.3560761,18.1003245 29.272055,20.0236452 27.7420678,23.1180771 L25.9475643,22.222877 C27.8182165,18.4376608 31.5895797,16.086376 35.791784,16.086376 C39.9849707,16.086376 43.7533279,18.430612 45.6259841,22.2047514 L43.8334844,23.1039794 Z M24.9906961,21.7445642 L23.1961926,20.8473502 C25.5898659,16.006825 30.4172909,13 35.791784,13 C41.1492438,13 45.969655,15.9937344 48.3703421,20.813113 L46.5768405,21.714355 C44.5198244,17.5807258 40.3867551,15.0139485 35.791784,15.0139485 C31.1827854,15.0139485 27.0437044,17.5928095 24.9906961,21.7445642 L24.9906961,21.7445642 Z M52.2118422,46.1949055 C52.9232311,44.7801067 53.4903383,42.9665461 53.4362326,40.81867 L58.7946944,40.81867 C57.9941314,42.8587998 54.9511904,44.7710439 52.2118422,46.1949055 L52.2118422,46.1949055 Z M44.9747125,64.9860515 L47.9805811,64.9860515 L47.9805811,49.8814381 L44.9747125,49.8814381 L44.9747125,64.9860515 Z M61,39.8116958 C61,39.255846 60.5521256,38.8047216 59.9980438,38.8047216 L49.9844935,38.8047216 L49.9844935,40.81867 L51.4303163,40.81867 C51.5435374,44.5756909 49.3462474,47.1072241 48.5847607,47.8674897 L44.9747125,47.8674897 L44.9747125,44.846567 L42.9708001,44.846567 L42.9708001,65.9930258 C42.9708001,66.5488755 43.4186746,67 43.9727563,67 L48.9825373,67 C49.5366191,67 49.9844935,66.5488755 49.9844935,65.9930258 L49.9844935,49.5169134 C54.1235746,47.5865438 61,44.3652333 61,39.8116958 L61,39.8116958 Z" id="AWS-Ground-Station_Icon_64_Squid" fill="#FFFFFF"></path>
    </g>
</g>
<g transform="translate(530.5 36) scale(0.7)">
    <title>Icon-Architecture/64/Arch_Amazon-EventBridge_64</title>
    <g id="Icon-Architecture/64/Arch_Amazon-EventBridge_64" stroke="none" stroke-width="1" fill="none" fill-rule="evenodd">
        <g id="Icon-Architecture-BG/64/Application-Integration" fill="#E7157B">
            <rect id="Rectangle" x="0" y="0" width="80" height="80"></rect>
        </g>
        <path d="M53.656744,66 C51.5137882,66 49.7695913,64.247 49.7695913,62.091 C49.7695913,59.935 51.5137882,58.182 53.656744,58.182 C55.7996998,58.182 57.5438968,59.935 57.5438968,62.091 C57.5438968,64.247 55.7996998,66 53.656744,66 L53.656744,66 Z M45.1326526,49 L34.7977386,49 L29.6297845,40 L34.7977386,31 L45.1326526,31 L50.2996124,40 L45.1326526,49 Z M27.6210741,21.818 C25.4781184,21.818 23.7339214,20.065 23.7339214,17.909 C23.7339214,15.753 25.4781184,14 27.6210741,14 C29.7650244,14 31.5092213,15.753 31.5092213,17.909 C31.5092213,20.065 29.7650244,21.818 27.6210741,21.818 L27.6210741,21.818 Z M53.656744,56.182 C52.918891,56.182 52.214848,56.325 51.5635088,56.576 L47.3402451,49.41 L47.117497,49.543 L52.3093171,40.5 C52.4863222,40.19 52.4863222,39.81 52.3093171,39.5 L46.5675877,29.5 C46.3895881,29.19 46.0614325,29 45.7064278,29 L35.2581509,29 L35.2989218,28.976 L31.4266852,22.404 C32.691576,21.32 33.4980434,19.708 33.4980434,17.909 C33.4980434,14.651 30.8618597,12 27.6210741,12 C24.381283,12 21.7450993,14.651 21.7450993,17.909 C21.7450993,21.167 24.381283,23.818 27.6210741,23.818 C28.3599216,23.818 29.0639646,23.675 29.7153038,23.424 L33.3299879,29.557 L27.6200797,39.5 C27.4430746,39.81 27.4430746,40.19 27.6200797,40.5 L33.3628035,50.5 C33.5408031,50.81 33.8689587,51 34.2239635,51 L45.7064278,51 C45.7889639,51 45.8695112,50.987 45.9470752,50.968 L49.8521274,57.596 C48.5862421,58.68 47.7807692,60.292 47.7807692,62.091 C47.7807692,65.349 50.4159585,68 53.656744,68 C56.8975296,68 59.5327189,65.349 59.5327189,62.091 C59.5327189,58.833 56.8975296,56.182 53.656744,56.182 L53.656744,56.182 Z M59.5844283,32.104 C57.4414725,32.104 55.6982699,30.351 55.6982699,28.195 C55.6982699,26.039 57.4414725,24.286 59.5844283,24.286 C61.7273841,24.286 63.471581,26.039 63.471581,28.195 C63.471581,30.351 61.7273841,32.104 59.5844283,32.104 L59.5844283,32.104 Z M66.8665003,39.5 L63.091716,32.925 C64.5266511,31.846 65.4604031,30.13 65.4604031,28.195 C65.4604031,24.937 62.8252138,22.286 59.5844283,22.286 C58.7600615,22.286 57.9744768,22.459 57.2614841,22.77 L54.1837819,17.409 C54.0067767,17.1 53.6776267,16.909 53.3226219,16.909 L40.9949082,16.909 L40.9949082,18.909 L52.7488468,18.909 L55.5958456,23.869 C54.4383511,24.949 53.7094478,26.486 53.7094478,28.195 C53.7094478,31.453 56.3446371,34.104 59.5844283,34.104 C60.1880358,34.104 60.771755,34.011 61.3206699,33.84 L64.85779,40 L59.8917013,48.648 L61.6140212,49.648 L66.8665003,40.5 C67.0444999,40.19 67.0444999,39.81 66.8665003,39.5 L66.8665003,39.5 Z M21.229,55.247 C19.0850498,55.247 17.3408528,53.493 17.3408528,51.338 C17.3408528,49.182 19.0850498,47.429 21.229,47.429 C23.3719558,47.429 25.1161527,49.182 25.1161527,51.338 C25.1161527,53.493 23.3719558,55.247 21.229,55.247 L21.229,55.247 Z M24.4767464,56.258 C26.0588544,55.198 27.1049748,53.389 27.1049748,51.338 C27.1049748,48.08 24.4687911,45.429 21.229,45.429 C20.2902759,45.429 19.4062445,45.657 18.618671,46.052 L15.1432044,40 L20.9018387,29.971 L19.1785244,28.971 L13.1334997,39.5 C12.9555001,39.81 12.9555001,40.19 13.1334997,40.5 L17.0047419,47.24 C15.9834817,48.304 15.3520307,49.747 15.3520307,51.338 C15.3520307,54.596 17.9882144,57.247 21.229,57.247 C21.7172558,57.247 22.189601,57.18 22.6440469,57.066 L25.8162181,62.591 C25.9942177,62.9 26.3223733,63.091 26.6773781,63.091 L39.0060862,63.091 L39.0060862,61.091 L27.2511532,61.091 L24.4767464,56.258 Z" id="Amazon-EventBridge_Icon_64_Squid" fill="#FFFFFF"></path>
    </g>
</g>
<g transform="translate(809.5 36) scale(0.7)">
    <title>Icon-Architecture/64/Arch_AWS-Lambda_64</title>
    <g id="Icon-Architecture/64/Arch_AWS-Lambda_64" stroke="none" stroke-width="1" fill="none" fill-rule="evenodd">
        <g id="Icon-Architecture-BG/64/Compute" fill="#ED7100">
            <rect id="Rectangle" x="0" y="0" width="80" height="80"></rect>
        </g>
        <path d="M28.0075352,66 L15.5907274,66 L29.3235885,37.296 L35.5460249,50.106 L28.0075352,66 Z M30.2196674,34.553 C30.0512768,34.208 29.7004629,33.989 29.3175745,33.989 L29.3145676,33.989 C28.9286723,33.99 28.5778583,34.211 28.4124746,34.558 L13.097944,66.569 C12.9495999,66.879 12.9706487,67.243 13.1550766,67.534 C13.3374998,67.824 13.6582439,68 14.0020416,68 L28.6420072,68 C29.0299071,68 29.3817234,67.777 29.5481094,67.428 L37.563706,50.528 C37.693006,50.254 37.6920037,49.937 37.5586944,49.665 L30.2196674,34.553 Z M64.9953491,66 L52.6587274,66 L32.866809,24.57 C32.7014253,24.222 32.3486067,24 31.9617091,24 L23.8899822,24 L23.8990031,14 L39.7197081,14 L59.4204149,55.429 C59.5857986,55.777 59.9386172,56 60.3255148,56 L64.9953491,56 L64.9953491,66 Z M65.9976745,54 L60.9599868,54 L41.25928,12.571 C41.0938963,12.223 40.7410777,12 40.3531778,12 L22.89768,12 C22.3453987,12 21.8963569,12.447 21.8953545,12.999 L21.884329,24.999 C21.884329,25.265 21.9885708,25.519 22.1780103,25.707 C22.3654452,25.895 22.6200358,26 22.8866544,26 L31.3292417,26 L51.1221625,67.43 C51.2885485,67.778 51.6393624,68 52.02626,68 L65.9976745,68 C66.5519605,68 67,67.552 67,67 L67,55 C67,54.448 66.5519605,54 65.9976745,54 L65.9976745,54 Z" id="AWS-Lambda_Icon_64_Squid" fill="#FFFFFF"></path>
    </g>
</g>
<g transform="translate(1088.5 36) scale(0.7)">
    <title>Icon-Architecture/64/Arch_Amazon-Simple-Storage-Service_64</title>
    <g id="Icon-Architecture/64/Arch_Amazon-Simple-Storage-Service_64" stroke="none" stroke-width="1" fill="none" fill-rule="evenodd">
        <g id="Icon-Architecture-BG/64/Storage" fill="#7AA116">
            <rect id="Rectangle" x="0" y="0" width="80" height="80"></rect>
        </g>
        <g id="Icon-Service/64/Amazon-Simple-Storage-Service_64" transform="translate(12.999900, 11.999600)" fill="#FFFFFF">
            <path d="M47.836,30.893 L48.22,28.189 C51.761,30.31 51.807,31.186 51.8060132,31.21 C51.8,31.215 51.196,31.719 47.836,30.893 L47.836,30.893 Z M45.893,30.353 C39.773,28.501 31.25,24.591 27.801,22.961 C27.801,22.947 27.805,22.934 27.805,22.92 C27.805,21.595 26.727,20.517 25.401,20.517 C24.077,20.517 22.999,21.595 22.999,22.92 C22.999,24.245 24.077,25.323 25.401,25.323 C25.983,25.323 26.511,25.106 26.928,24.761 C30.986,26.682 39.443,30.535 45.608,32.355 L43.17,49.561 C43.163,49.608 43.16,49.655 43.16,49.702 C43.16,51.217 36.453,54 25.494,54 C14.419,54 7.641,51.217 7.641,49.702 C7.641,49.656 7.638,49.611 7.632,49.566 L2.538,12.359 C6.947,15.394 16.43,17 25.5,17 C34.556,17 44.023,15.4 48.441,12.374 L45.893,30.353 Z M2,8.478 C2.072,7.162 9.634,2 25.5,2 C41.364,2 48.927,7.161 49,8.478 L49,8.927 C48.13,11.878 38.33,15 25.5,15 C12.648,15 2.843,11.868 2,8.913 L2,8.478 Z M51,8.5 C51,5.035 41.066,0 25.5,0 C9.934,0 0,5.035 0,8.5 L0.094,9.254 L5.642,49.778 C5.775,54.31 17.861,56 25.494,56 C34.966,56 45.029,53.822 45.159,49.781 L47.555,32.884 C48.888,33.203 49.985,33.366 50.866,33.366 C52.049,33.366 52.849,33.077 53.334,32.499 C53.732,32.025 53.884,31.451 53.77,30.84 C53.511,29.456 51.868,27.964 48.522,26.055 L50.898,9.293 L51,8.5 Z" id="Amazon-Simple-Storage-Service-Icon_64_Squid"></path>
        </g>
    </g>
</g>
<text x="279.5" y="108" text-anchor="middle" fill="#f4f1f8" font-family="sans-serif" font-size="13" font-weight="600">GeoNet</text><text x="279.5" y="124" text-anchor="middle" fill="#9b92b0" font-family="sans-serif" font-size="11">public RINEX</text>
<text x="558.5" y="108" text-anchor="middle" fill="#f4f1f8" font-family="sans-serif" font-size="13" font-weight="600">Scheduler</text><text x="558.5" y="124" text-anchor="middle" fill="#9b92b0" font-family="sans-serif" font-size="11">EventBridge</text>
<text x="837.5" y="108" text-anchor="middle" fill="#f4f1f8" font-family="sans-serif" font-size="13" font-weight="600">Ingest Sync</text><text x="837.5" y="124" text-anchor="middle" fill="#9b92b0" font-family="sans-serif" font-size="11">Lambda</text>
<text x="1116.5" y="108" text-anchor="middle" fill="#f4f1f8" font-family="sans-serif" font-size="13" font-weight="600">Data Lake</text><text x="1116.5" y="124" text-anchor="middle" fill="#9b92b0" font-family="sans-serif" font-size="11">raw/rinexhourly</text>
<line x1="315.5" y1="214" x2="512.5" y2="214" stroke="#6d5f95" stroke-width="2"/>
<polygon points="512.5,209 522.5,214 512.5,219" fill="#6d5f95"/>
<line x1="594.5" y1="214" x2="791.5" y2="214" stroke="#6d5f95" stroke-width="2"/>
<polygon points="791.5,209 801.5,214 791.5,219" fill="#6d5f95"/>
<line x1="873.5" y1="214" x2="1070.5" y2="214" stroke="#6d5f95" stroke-width="2"/>
<polygon points="1070.5,209 1080.5,214 1070.5,219" fill="#6d5f95"/>
<g transform="translate(251.5 186) scale(0.7)">
    <title>Icon-Architecture/64/Arch_Amazon-Simple-Queue-Service_64</title>
    <g id="Icon-Architecture/64/Arch_Amazon-Simple-Queue-Service_64" stroke="none" stroke-width="1" fill="none" fill-rule="evenodd">
        <g id="Icon-Architecture-BG/64/Application-Integration" fill="#E7157B">
            <rect id="Rectangle" x="0" y="0" width="80" height="80"></rect>
        </g>
        <path d="M28.7169966,43.6876756 L31.7189265,40.721826 C31.9070474,40.5359011 32.0131156,40.2833614 32.0141233,40.019885 C32.0151169,39.7564086 31.9100493,39.5028747 31.722929,39.3159556 L28.7209992,36.3163014 L27.3020871,37.7181948 L28.5899149,39.0057494 L24.0089701,39.0057494 L24.0089701,40.9942506 L28.6059252,40.9942506 L27.3060896,42.2778282 L28.7169966,43.6876756 Z M51.627725,43.7781524 L55.630298,40.793412 C55.8804589,40.6054986 56.0295547,40.3112004 56.0295547,39.9990057 C56.0295547,39.6858168 55.8804589,39.3905244 55.6292974,39.202611 L51.6267243,36.2218476 L50.4259524,37.8126486 L52.0269816,39.0057494 L48.0244085,39.0057494 L48.0244085,40.9942506 L52.025981,40.9942506 L50.4249518,42.1873514 L51.627725,43.7781524 Z M35.2081695,40 C35.2081695,42.1107941 34.8429347,44.1012839 34.160496,45.8332685 C35.9606533,45.14127 37.9909585,44.7952708 40.0192624,44.7952708 C42.0475663,44.7952708 44.0778715,45.14127 45.8770281,45.8332685 C45.19559,44.1012839 44.8303552,42.1107941 44.8303552,40 C44.8303552,37.8892059 45.19559,35.8997104 45.8770281,34.1667315 C42.2777142,35.5497341 37.7608105,35.5497341 34.160496,34.1667315 C34.8429347,35.8997104 35.2081695,37.8892059 35.2081695,40 L35.2081695,40 Z M30.3060182,49.6511909 C30.1108927,49.4573121 30.0128297,49.2027839 30.0128297,48.9482557 C30.0128297,48.6937276 30.1108927,48.4391994 30.3060182,48.2453205 C32.1221857,46.4407556 33.206883,43.3575844 33.206883,40 C33.206883,36.6424156 32.1221857,33.5592444 30.3060182,31.7546795 C30.1108927,31.5608006 30.0128297,31.3062724 30.0128297,31.0517443 C30.0128297,30.7972161 30.1108927,30.5426879 30.3060182,30.3488091 C30.6972697,29.9600571 31.3296762,29.9600571 31.7209277,30.3488091 C35.5984204,34.2015303 44.4401044,34.2015303 48.317597,30.3488091 C48.7088485,29.9600571 49.3412551,29.9600571 49.7325066,30.3488091 C49.927632,30.5426879 50.0256951,30.7972161 50.0256951,31.0517443 C50.0256951,31.3062724 49.927632,31.5608006 49.7325066,31.7546795 C47.9163391,33.5592444 46.8316418,36.6424156 46.8316418,40 C46.8316418,43.3575844 47.9163391,46.4407556 49.7325066,48.2453205 C49.927632,48.4391994 50.0256951,48.6937276 50.0256951,48.9482557 C50.0256951,49.2027839 49.927632,49.4573121 49.7325066,49.6511909 C49.5373812,49.8450698 49.2812165,49.9425064 49.0250518,49.9425064 C48.7688871,49.9425064 48.5127225,49.8450698 48.317597,49.6511909 C44.4401044,45.7984697 35.5984204,45.7984697 31.7209277,49.6511909 C31.3296762,50.0399429 30.6972697,50.0399429 30.3060182,49.6511909 L30.3060182,49.6511909 Z M66.0009649,40.0049713 C66.0009649,39.0783297 65.6377314,38.2073661 64.9783075,37.5521549 C64.2978701,36.8750702 63.403295,36.5380193 62.5097205,36.5380193 C61.6161461,36.5380193 60.721571,36.8750702 60.0411336,37.5521549 C58.6792581,38.9043358 58.6792581,41.1046125 60.0411336,42.4577876 C61.4020084,43.8099684 63.6154313,43.8109627 64.9783075,42.4577876 C65.6377314,41.8025764 66.0009649,40.9316128 66.0009649,40.0049713 L66.0009649,40.0049713 Z M66.3932171,43.863658 C65.3225288,44.9275062 63.916625,45.4594303 62.5097205,45.4594303 C61.1028161,45.4594303 59.6969123,44.9275062 58.626224,43.863658 C56.4838468,41.7359616 56.4838468,38.2739809 58.626224,36.1462845 C60.7686012,34.0165997 64.2528411,34.0185882 66.3932171,36.1462845 C68.5355943,38.2739809 68.5355943,41.7359616 66.3932171,43.863658 L66.3932171,43.863658 Z M20.9800229,40.027839 C20.9800229,39.1011974 20.6167894,38.2302339 19.9573654,37.5750227 C19.2979415,36.9198115 18.421378,36.5588985 17.4887785,36.5588985 C16.5571796,36.5588985 15.6806161,36.9198115 15.0201916,37.5750227 C14.3607676,38.2302339 13.9985348,39.1011974 13.9985348,40.027839 C13.9985348,40.9534864 14.3607676,41.8244499 15.0201916,42.4806553 C16.34004,43.7900834 18.6385176,43.7900834 19.9573654,42.4806553 C20.6167894,41.8244499 20.9800229,40.9534864 20.9800229,40.027839 L20.9800229,40.027839 Z M21.372275,43.8865257 C20.3015867,44.9503739 18.8956829,45.482298 17.4887785,45.482298 C16.0828747,45.482298 14.6769709,44.9503739 13.605282,43.8865257 C11.464906,41.7588294 11.464906,38.2968487 13.605282,36.1691523 C15.7476592,34.0414559 19.2308984,34.0414559 21.372275,36.1691523 C23.5136516,38.2968487 23.5136516,41.7588294 21.372275,43.8865257 L21.372275,43.8865257 Z M54.8958259,54.856093 C50.901258,58.8261358 45.5888428,61.0114987 39.9392109,61.0114987 C34.2875777,61.0114987 28.9761632,58.8261358 24.9815953,54.856093 C22.241834,52.134829 20.7338646,48.8826352 19.9513616,46.6346345 L18.0601458,47.2848744 C18.9116932,49.730731 20.5577514,53.273246 23.5666857,56.2619634 C27.9394968,60.607833 33.7532342,63 39.9392109,63 C46.124187,63 51.9379244,60.607833 56.3107355,56.2619634 C58.8373597,53.7534691 60.8496533,50.563913 61.9793796,47.2818917 L60.0861625,46.6376173 C59.0534987,49.6382657 57.2103138,52.5573856 54.8958259,54.856093 L54.8958259,54.856093 Z M19.9503609,33.3663597 L18.0611465,32.7141313 C19.2719248,29.2501621 21.229183,26.0606061 23.5726896,23.7330653 C27.9434994,19.3911728 33.7552355,17 39.9392109,17 C46.1231863,17 51.9349225,19.3911728 56.3047316,23.7330653 C58.7713173,26.1838931 60.8396469,29.4569662 61.9773783,32.7141313 L60.0881638,33.3663597 C59.0444929,30.3836078 57.1502752,27.3849479 54.889822,25.1389357 C50.898256,21.1718757 45.5878422,18.9885013 39.9392109,18.9885013 C34.289579,18.9885013 28.9801658,21.1718757 24.9875992,25.1389357 C22.8542277,27.2596723 21.0650775,30.181775 19.9503609,33.3663597 L19.9503609,33.3663597 Z" id="AWS-Simple-Queue-Service_Icon_64_Squid" fill="#FFFFFF"></path>
    </g>
</g>
<g transform="translate(530.5 186) scale(0.7)">
    <title>Icon-Architecture/64/Arch_AWS-Lambda_64</title>
    <g id="Icon-Architecture/64/Arch_AWS-Lambda_64" stroke="none" stroke-width="1" fill="none" fill-rule="evenodd">
        <g id="Icon-Architecture-BG/64/Compute" fill="#ED7100">
            <rect id="Rectangle" x="0" y="0" width="80" height="80"></rect>
        </g>
        <path d="M28.0075352,66 L15.5907274,66 L29.3235885,37.296 L35.5460249,50.106 L28.0075352,66 Z M30.2196674,34.553 C30.0512768,34.208 29.7004629,33.989 29.3175745,33.989 L29.3145676,33.989 C28.9286723,33.99 28.5778583,34.211 28.4124746,34.558 L13.097944,66.569 C12.9495999,66.879 12.9706487,67.243 13.1550766,67.534 C13.3374998,67.824 13.6582439,68 14.0020416,68 L28.6420072,68 C29.0299071,68 29.3817234,67.777 29.5481094,67.428 L37.563706,50.528 C37.693006,50.254 37.6920037,49.937 37.5586944,49.665 L30.2196674,34.553 Z M64.9953491,66 L52.6587274,66 L32.866809,24.57 C32.7014253,24.222 32.3486067,24 31.9617091,24 L23.8899822,24 L23.8990031,14 L39.7197081,14 L59.4204149,55.429 C59.5857986,55.777 59.9386172,56 60.3255148,56 L64.9953491,56 L64.9953491,66 Z M65.9976745,54 L60.9599868,54 L41.25928,12.571 C41.0938963,12.223 40.7410777,12 40.3531778,12 L22.89768,12 C22.3453987,12 21.8963569,12.447 21.8953545,12.999 L21.884329,24.999 C21.884329,25.265 21.9885708,25.519 22.1780103,25.707 C22.3654452,25.895 22.6200358,26 22.8866544,26 L31.3292417,26 L51.1221625,67.43 C51.2885485,67.778 51.6393624,68 52.02626,68 L65.9976745,68 C66.5519605,68 67,67.552 67,67 L67,55 C67,54.448 66.5519605,54 65.9976745,54 L65.9976745,54 Z" id="AWS-Lambda_Icon_64_Squid" fill="#FFFFFF"></path>
    </g>
</g>
<g transform="translate(809.5 186) scale(0.7)">
    <title>Icon-Architecture/64/Arch_Amazon-Simple-Storage-Service_64</title>
    <g id="Icon-Architecture/64/Arch_Amazon-Simple-Storage-Service_64" stroke="none" stroke-width="1" fill="none" fill-rule="evenodd">
        <g id="Icon-Architecture-BG/64/Storage" fill="#7AA116">
            <rect id="Rectangle" x="0" y="0" width="80" height="80"></rect>
        </g>
        <g id="Icon-Service/64/Amazon-Simple-Storage-Service_64" transform="translate(12.999900, 11.999600)" fill="#FFFFFF">
            <path d="M47.836,30.893 L48.22,28.189 C51.761,30.31 51.807,31.186 51.8060132,31.21 C51.8,31.215 51.196,31.719 47.836,30.893 L47.836,30.893 Z M45.893,30.353 C39.773,28.501 31.25,24.591 27.801,22.961 C27.801,22.947 27.805,22.934 27.805,22.92 C27.805,21.595 26.727,20.517 25.401,20.517 C24.077,20.517 22.999,21.595 22.999,22.92 C22.999,24.245 24.077,25.323 25.401,25.323 C25.983,25.323 26.511,25.106 26.928,24.761 C30.986,26.682 39.443,30.535 45.608,32.355 L43.17,49.561 C43.163,49.608 43.16,49.655 43.16,49.702 C43.16,51.217 36.453,54 25.494,54 C14.419,54 7.641,51.217 7.641,49.702 C7.641,49.656 7.638,49.611 7.632,49.566 L2.538,12.359 C6.947,15.394 16.43,17 25.5,17 C34.556,17 44.023,15.4 48.441,12.374 L45.893,30.353 Z M2,8.478 C2.072,7.162 9.634,2 25.5,2 C41.364,2 48.927,7.161 49,8.478 L49,8.927 C48.13,11.878 38.33,15 25.5,15 C12.648,15 2.843,11.868 2,8.913 L2,8.478 Z M51,8.5 C51,5.035 41.066,0 25.5,0 C9.934,0 0,5.035 0,8.5 L0.094,9.254 L5.642,49.778 C5.775,54.31 17.861,56 25.494,56 C34.966,56 45.029,53.822 45.159,49.781 L47.555,32.884 C48.888,33.203 49.985,33.366 50.866,33.366 C52.049,33.366 52.849,33.077 53.334,32.499 C53.732,32.025 53.884,31.451 53.77,30.84 C53.511,29.456 51.868,27.964 48.522,26.055 L50.898,9.293 L51,8.5 Z" id="Amazon-Simple-Storage-Service-Icon_64_Squid"></path>
        </g>
    </g>
</g>
<g transform="translate(1088.5 186) scale(0.7)">
    <title>Icon-Architecture/64/Arch_Amazon-DynamoDB_64</title>
    <g id="Icon-Architecture/64/Arch_Amazon-DynamoDB_64" stroke="none" stroke-width="1" fill="none" fill-rule="evenodd">
        <g id="Icon-Architecture-BG/64/Database" fill="#C925D1">
            <rect id="Rectangle" x="0" y="0" width="80" height="80"></rect>
        </g>
        <path d="M52.0859525,54.8502506 C48.7479569,57.5490338 41.7449661,58.9752927 35.0439749,58.9752927 C28.3419838,58.9752927 21.336993,57.548042 17.9999974,54.8492588 L17.9999974,60.284515 L18.0009974,60.284515 C18.0009974,62.9952002 24.9999974,66.0163299 35.0439749,66.0163299 C45.0799617,66.0163299 52.0749525,62.9991676 52.0859525,60.290466 L52.0859525,54.8502506 Z M52.0869525,44.522272 L54.0869499,44.5113618 L54.0869499,44.522272 C54.0869499,45.7303271 53.4819507,46.8580436 52.3039522,47.8905439 C53.7319503,49.147199 54.0869499,50.3800499 54.0869499,51.257824 C54.0869499,51.263775 54.0859499,51.2687342 54.0859499,51.2746852 L54.0859499,60.284515 L54.0869499,60.284515 C54.0869499,65.2952658 44.2749628,68 35.0439749,68 C25.8349871,68 16.0499999,65.3071678 16.003,60.3192292 C16.003,60.31427 16,60.3093109 16,60.3043517 L16,51.2548485 C16,51.2528648 16.002,51.2498893 16.002,51.2469138 C16.005,50.3691398 16.3609995,49.1412479 17.7869976,47.8875684 C16.3699995,46.6358725 16.01,45.4149236 16.001,44.5440924 L16.002,44.5440924 C16.002,44.540125 16,44.5371495 16,44.5331822 L16,35.483679 C16,35.4807035 16.002,35.477728 16.002,35.4747525 C16.005,34.5969784 16.3619995,33.3690866 17.7879976,32.1173908 C16.3699995,30.8647031 16.01,29.6427623 16.001,28.7729229 L16.002,28.7729229 C16.002,28.7689556 16,28.7649882 16,28.7610209 L16,19.7125095 C16,19.709534 16.002,19.7065585 16.002,19.703583 C16.019,14.6997751 25.8199871,12 35.0439749,12 C40.2549681,12 45.2609615,12.8281823 48.7779569,14.2722941 L48.0129579,16.1052054 C44.7299622,14.7573015 40.0029684,13.9836701 35.0439749,13.9836701 C24.9999882,13.9836701 18.0009974,17.0047998 18.0009974,19.7174687 C18.0009974,22.4291458 24.9999882,25.4502754 35.0439749,25.4502754 C35.3149746,25.4532509 35.5799742,25.4502754 35.8479739,25.4403571 L35.9319738,27.4220435 C35.6359742,27.4339456 35.3399745,27.4339456 35.0439749,27.4339456 C28.3419838,27.4339456 21.336993,26.0066949 18,23.3079117 L18,28.7401923 L18.0009974,28.7401923 L18.0009974,28.7630046 C18.0109974,29.8034395 19.0779959,30.7119605 19.9719948,31.2892085 C22.6619912,33.0040913 27.4819849,34.1754485 32.8569778,34.4184481 L32.7659779,36.4001346 C27.3209851,36.1531677 22.5529914,35.0234675 19.4839954,33.2917235 C18.7279964,33.8570695 18.0009974,34.6217743 18.0009974,35.4886382 C18.0009974,38.2003153 24.9999882,41.2214449 35.0439749,41.2214449 C36.0289736,41.2214449 37.0069723,41.1887143 37.9519711,41.1232532 L38.0909709,43.1019642 C37.1009722,43.1704008 36.0749736,43.205115 35.0439749,43.205115 C28.3419838,43.205115 21.336993,41.7778644 18,39.0790811 L18,44.5113618 L18.0009974,44.5113618 C18.0109974,45.574609 19.0779959,46.4821381 19.9719948,47.060378 C23.0479907,49.0232196 28.8239831,50.2451604 35.0439749,50.2451604 L35.4839744,50.2451604 L35.4839744,52.2288305 L35.0439749,52.2288305 C28.7249832,52.2288305 22.9819908,51.0554896 19.4699954,49.0728113 C18.7179964,49.6371655 18.0009974,50.397903 18.0009974,51.257824 C18.0009974,53.9695011 24.9999882,56.9916225 35.0439749,56.9916225 C45.0799617,56.9916225 52.0749525,53.9744602 52.0859525,51.2647668 L52.0859525,51.2548485 L52.0859525,51.2538566 C52.0839525,50.391952 51.3639534,49.6312145 50.6099544,49.0668603 C50.1219551,49.3435823 49.5989558,49.6103859 49.0039566,49.8553692 L48.2379576,48.022458 C48.9639566,47.7239156 49.5939558,47.4015692 50.1109551,47.0623616 C51.0129539,46.4742034 52.0869525,45.5547723 52.0869525,44.522272 L52.0869525,44.522272 Z M60.6529412,30.0166841 L55.0489486,30.0166841 C54.717949,30.0166841 54.4069494,29.8540231 54.2219497,29.5822603 C54.0349499,29.3104975 53.99695,28.9643471 54.1189498,28.6598537 L57.5279453,20.1380068 L44.6189702,20.1380068 L38.6189702,32.0400276 L45.0009618,32.0400276 C45.3199614,32.0400276 45.619961,32.1917784 45.8089608,32.44668 C45.9959605,32.7025735 46.0509604,33.0308709 45.9539606,33.3333806 L40.2579681,51.089212 L60.6529412,30.0166841 Z M63.7219372,29.7121907 L38.7229701,55.539576 C38.5279703,55.7399267 38.2659707,55.8440694 38.000971,55.8440694 C37.8249713,55.8440694 37.6479715,55.7994368 37.4899717,55.7052124 C37.0899722,55.4691557 36.9069725,54.992083 37.0479723,54.5517083 L43.6339636,34.0236978 L37.0009724,34.0236978 C36.6539728,34.0236978 36.3329732,33.8461593 36.1499735,33.5535679 C35.9679737,33.2609766 35.9509737,32.8959813 36.1069735,32.5885124 L43.1069643,18.7028214 C43.2759641,18.3665893 43.6219636,18.1543366 44.0009631,18.1543366 L59.0009434,18.1543366 C59.331943,18.1543366 59.6429425,18.3179894 59.8279423,18.5887604 C60.0149421,18.861515 60.052942,19.2066736 59.9309422,19.5121588 L56.5219467,28.0330139 L62.9999381,28.0330139 C63.3999376,28.0330139 63.7629371,28.2710544 63.9199369,28.6360497 C64.0769367,29.0020368 63.9989368,29.4255504 63.7219372,29.7121907 L63.7219372,29.7121907 Z M19.4549955,60.6743062 C20.8719936,61.4727334 22.6559912,62.1442057 24.7569885,62.6678947 L25.2449878,60.7437346 C23.3459903,60.2706293 21.6859925,59.6497405 20.4429942,58.949505 L19.4549955,60.6743062 Z M24.7569885,46.7985335 L25.2449878,44.8753653 C23.3459903,44.4012681 21.6859925,43.7803794 20.4429942,43.0801438 L19.4549955,44.804945 C20.8719936,45.6033722 22.6549912,46.2748446 24.7569885,46.7985335 L24.7569885,46.7985335 Z M19.4549955,28.9355839 L20.4429942,27.2107827 C21.6839925,27.9110182 23.3449903,28.5309151 25.2449878,29.0060041 L24.7569885,30.9291723 C22.6529912,30.4044916 20.8699936,29.7330193 19.4549955,28.9355839 L19.4549955,28.9355839 Z" id="Amazon-DynamoDB_Icon_64_Squid" fill="#FFFFFF"></path>
    </g>
</g>
<text x="279.5" y="258" text-anchor="middle" fill="#f4f1f8" font-family="sans-serif" font-size="13" font-weight="600">SQS</text><text x="279.5" y="274" text-anchor="middle" fill="#9b92b0" font-family="sans-serif" font-size="11">ingest + reprocess</text>
<text x="558.5" y="258" text-anchor="middle" fill="#f4f1f8" font-family="sans-serif" font-size="13" font-weight="600">Processor</text><text x="558.5" y="274" text-anchor="middle" fill="#9b92b0" font-family="sans-serif" font-size="11">Lambda container</text>
<text x="837.5" y="258" text-anchor="middle" fill="#f4f1f8" font-family="sans-serif" font-size="13" font-weight="600">Processed</text><text x="837.5" y="274" text-anchor="middle" fill="#9b92b0" font-family="sans-serif" font-size="11">tec/ parquet</text>
<text x="1116.5" y="258" text-anchor="middle" fill="#f4f1f8" font-family="sans-serif" font-size="13" font-weight="600">Jobs Table</text><text x="1116.5" y="274" text-anchor="middle" fill="#9b92b0" font-family="sans-serif" font-size="11">DynamoDB</text>
<line x1="315.5" y1="364" x2="512.5" y2="364" stroke="#6d5f95" stroke-width="2"/>
<polygon points="512.5,359 522.5,364 512.5,369" fill="#6d5f95"/>
<line x1="594.5" y1="364" x2="791.5" y2="364" stroke="#6d5f95" stroke-width="2"/>
<polygon points="791.5,359 801.5,364 791.5,369" fill="#6d5f95"/>
<line x1="873.5" y1="364" x2="1070.5" y2="364" stroke="#6d5f95" stroke-width="2"/>
<polygon points="1070.5,359 1080.5,364 1070.5,369" fill="#6d5f95"/>
<g transform="translate(251.5 336) scale(0.7)">
    <title>Icon-Architecture/64/Arch_AWS-Amplify_64</title>
    <g id="Icon-Architecture/64/Arch_AWS-Amplify_64" stroke="none" stroke-width="1" fill="none" fill-rule="evenodd">
        <g id="Icon-Architecture-BG/64/Mobile" fill="#DD344C">
            <rect id="Rectangle" x="0" y="0" width="80" height="80"></rect>
        </g>
        <path d="M59.6107389,59.179 L39.5067389,20 L45.2577389,20 L65.3627389,59.179 L59.6107389,59.179 Z M67.8887389,59.722 L46.7587389,18.544 C46.5887389,18.21 46.2447389,18 45.8697389,18 L37.8697389,18 C37.5207389,18 37.1977389,18.181 37.0157389,18.479 C36.8347389,18.776 36.8207389,19.147 36.9797389,19.457 L58.1097389,60.636 C58.2807389,60.969 58.6247389,61.179 58.9997389,61.179 L66.9997389,61.179 C67.3477389,61.179 67.6717389,60.998 67.8527389,60.7 C68.0347389,60.403 68.0487389,60.033 67.8887389,59.722 L67.8887389,59.722 Z M47.5987389,59.179 L32.2147389,30.332 L35.3657389,25.121 L53.3407389,59.179 L47.5987389,59.179 Z M36.3097389,22.624 C36.1407389,22.305 35.8147389,22.101 35.4547389,22.091 C35.1087389,22.07 34.7567389,22.265 34.5697389,22.573 L30.2097389,29.784 C30.0267389,30.086 30.0167389,30.461 30.1817389,30.772 L46.1167389,60.65 C46.2907389,60.975 46.6307389,61.179 46.9997389,61.179 L54.9997389,61.179 C55.3497389,61.179 55.6747389,60.995 55.8557389,60.695 C56.0367389,60.395 56.0477389,60.022 55.8837389,59.712 L36.3097389,22.624 Z M14.7727389,59.179 L28.8847389,35.84 L31.7597389,41.229 L25.1337389,52.678 C24.9547389,52.988 24.9547389,53.369 25.1327389,53.679 C25.3117389,53.988 25.6417389,54.179 25.9997389,54.179 L38.6667389,54.179 L41.3327389,59.179 L14.7727389,59.179 Z M40.1487389,52.708 C39.9747389,52.383 39.6347389,52.179 39.2657389,52.179 L27.7337389,52.179 L33.7687389,41.75 C33.9427389,41.451 33.9487389,41.084 33.7867389,40.779 L29.8227389,33.346 C29.6527389,33.029 29.3267389,32.827 28.9667389,32.817 C28.5827389,32.8 28.2697389,32.992 28.0847389,33.299 L12.1437389,59.661 C11.9577389,59.971 11.9517389,60.356 12.1287389,60.67 C12.3057389,60.985 12.6377389,61.179 12.9997389,61.179 L42.9997389,61.179 C43.3507389,61.179 43.6757389,60.995 43.8567389,60.694 C44.0377389,60.392 44.0477389,60.018 43.8817389,59.708 L40.1487389,52.708 Z" id="AWS-Amplify_Icon_64_Squid" fill="#FFFFFF"></path>
    </g>
</g>
<g transform="translate(530.5 336) scale(0.7)">
<g id="Icon-Architecture/64/Arch_Amazon-API-Gateway_64">
<g id="Icon-Architecture-BG/64/Networking-Content-Delivery">
<rect id="Rectangle" width="80" height="80" fill="#8C4FFF"/>
</g>
<g id="Icon-Service/64/Amazon-API-Gateway_64">
<path id="Amazon-API-Gateway_Icon_64_Squid" fill-rule="evenodd" clip-rule="evenodd" d="M34.065 55.6324H37V53.6153H34.065V55.6324ZM39 55.6324H42V53.6153H39V55.6324ZM27 14.6295L14 21.0821V61.1934L27 65.5896V14.6295ZM29 27.3934V53.6153H32V55.6324H29V66.9915C29 67.3162 28.845 67.6208 28.584 67.8104C28.412 67.9355 28.207 68 28 68C27.894 68 27.786 67.9829 27.682 67.9476L12.682 62.8756C12.274 62.7375 12 62.3522 12 61.9196V20.4537C12 20.0705 12.217 19.7185 12.559 19.5491L27.559 12.1041C27.868 11.9498 28.235 11.9679 28.528 12.1525C28.821 12.3361 29 12.6598 29 13.0087V25.3764H32V27.3934H29ZM44 55.6324H47V53.6153H44V55.6324ZM44.065 27.3934H47V25.3764H44.065V27.3934ZM39.065 27.3934H42V25.3764H39.065V27.3934ZM34.065 27.3934H37V25.3764H34.065V27.3934ZM66 21.0821L53 14.6295V65.5896L66 61.1934V21.0821ZM68 61.9196C68 62.3522 67.726 62.7375 67.318 62.8756L52.318 67.9476C52.214 67.9829 52.106 68 52 68C51.793 68 51.588 67.9355 51.416 67.8104C51.155 67.6208 51 67.3162 51 66.9915V55.6324H49.065V53.6153H51V27.3934H49.065V25.3764H51V13.0087C51 12.6598 51.179 12.3361 51.472 12.1525C51.765 11.9679 52.131 11.9498 52.441 12.1041L67.441 19.5491C67.783 19.7185 68 20.0705 68 20.4537V61.9196ZM42.934 33.8067L41.066 33.0826L36.066 46.1935L37.934 46.9176L42.934 33.8067ZM49.707 40.2089C50.098 39.8145 50.098 39.1761 49.707 38.7828L45.707 34.7487L44.293 36.1747L47.586 39.4958L44.293 42.8169L45.707 44.243L49.707 40.2089ZM34.293 44.243L30.293 40.2089C29.902 39.8145 29.902 39.1761 30.293 38.7828L34.293 34.7487L35.707 36.1747L32.414 39.4958L35.707 42.8169L34.293 44.243Z" fill="white"/>
</g>
</g>
</g>
<g transform="translate(809.5 336) scale(0.7)">
    <title>Icon-Architecture/64/Arch_AWS-Lambda_64</title>
    <g id="Icon-Architecture/64/Arch_AWS-Lambda_64" stroke="none" stroke-width="1" fill="none" fill-rule="evenodd">
        <g id="Icon-Architecture-BG/64/Compute" fill="#ED7100">
            <rect id="Rectangle" x="0" y="0" width="80" height="80"></rect>
        </g>
        <path d="M28.0075352,66 L15.5907274,66 L29.3235885,37.296 L35.5460249,50.106 L28.0075352,66 Z M30.2196674,34.553 C30.0512768,34.208 29.7004629,33.989 29.3175745,33.989 L29.3145676,33.989 C28.9286723,33.99 28.5778583,34.211 28.4124746,34.558 L13.097944,66.569 C12.9495999,66.879 12.9706487,67.243 13.1550766,67.534 C13.3374998,67.824 13.6582439,68 14.0020416,68 L28.6420072,68 C29.0299071,68 29.3817234,67.777 29.5481094,67.428 L37.563706,50.528 C37.693006,50.254 37.6920037,49.937 37.5586944,49.665 L30.2196674,34.553 Z M64.9953491,66 L52.6587274,66 L32.866809,24.57 C32.7014253,24.222 32.3486067,24 31.9617091,24 L23.8899822,24 L23.8990031,14 L39.7197081,14 L59.4204149,55.429 C59.5857986,55.777 59.9386172,56 60.3255148,56 L64.9953491,56 L64.9953491,66 Z M65.9976745,54 L60.9599868,54 L41.25928,12.571 C41.0938963,12.223 40.7410777,12 40.3531778,12 L22.89768,12 C22.3453987,12 21.8963569,12.447 21.8953545,12.999 L21.884329,24.999 C21.884329,25.265 21.9885708,25.519 22.1780103,25.707 C22.3654452,25.895 22.6200358,26 22.8866544,26 L31.3292417,26 L51.1221625,67.43 C51.2885485,67.778 51.6393624,68 52.02626,68 L65.9976745,68 C66.5519605,68 67,67.552 67,67 L67,55 C67,54.448 66.5519605,54 65.9976745,54 L65.9976745,54 Z" id="AWS-Lambda_Icon_64_Squid" fill="#FFFFFF"></path>
    </g>
</g>
<g transform="translate(1088.5 336) scale(0.7)">
    <title>Icon-Architecture/64/Arch_AWS-Lambda_64</title>
    <g id="Icon-Architecture/64/Arch_AWS-Lambda_64" stroke="none" stroke-width="1" fill="none" fill-rule="evenodd">
        <g id="Icon-Architecture-BG/64/Compute" fill="#ED7100">
            <rect id="Rectangle" x="0" y="0" width="80" height="80"></rect>
        </g>
        <path d="M28.0075352,66 L15.5907274,66 L29.3235885,37.296 L35.5460249,50.106 L28.0075352,66 Z M30.2196674,34.553 C30.0512768,34.208 29.7004629,33.989 29.3175745,33.989 L29.3145676,33.989 C28.9286723,33.99 28.5778583,34.211 28.4124746,34.558 L13.097944,66.569 C12.9495999,66.879 12.9706487,67.243 13.1550766,67.534 C13.3374998,67.824 13.6582439,68 14.0020416,68 L28.6420072,68 C29.0299071,68 29.3817234,67.777 29.5481094,67.428 L37.563706,50.528 C37.693006,50.254 37.6920037,49.937 37.5586944,49.665 L30.2196674,34.553 Z M64.9953491,66 L52.6587274,66 L32.866809,24.57 C32.7014253,24.222 32.3486067,24 31.9617091,24 L23.8899822,24 L23.8990031,14 L39.7197081,14 L59.4204149,55.429 C59.5857986,55.777 59.9386172,56 60.3255148,56 L64.9953491,56 L64.9953491,66 Z M65.9976745,54 L60.9599868,54 L41.25928,12.571 C41.0938963,12.223 40.7410777,12 40.3531778,12 L22.89768,12 C22.3453987,12 21.8963569,12.447 21.8953545,12.999 L21.884329,24.999 C21.884329,25.265 21.9885708,25.519 22.1780103,25.707 C22.3654452,25.895 22.6200358,26 22.8866544,26 L31.3292417,26 L51.1221625,67.43 C51.2885485,67.778 51.6393624,68 52.02626,68 L65.9976745,68 C66.5519605,68 67,67.552 67,67 L67,55 C67,54.448 66.5519605,54 65.9976745,54 L65.9976745,54 Z" id="AWS-Lambda_Icon_64_Squid" fill="#FFFFFF"></path>
    </g>
</g>
<text x="279.5" y="408" text-anchor="middle" fill="#f4f1f8" font-family="sans-serif" font-size="13" font-weight="600">Portal</text><text x="279.5" y="424" text-anchor="middle" fill="#9b92b0" font-family="sans-serif" font-size="11">Amplify SPA</text>
<text x="558.5" y="408" text-anchor="middle" fill="#f4f1f8" font-family="sans-serif" font-size="13" font-weight="600">API Gateway</text><text x="558.5" y="424" text-anchor="middle" fill="#9b92b0" font-family="sans-serif" font-size="11">REST API</text>
<text x="837.5" y="408" text-anchor="middle" fill="#f4f1f8" font-family="sans-serif" font-size="13" font-weight="600">Query API</text><text x="837.5" y="424" text-anchor="middle" fill="#9b92b0" font-family="sans-serif" font-size="11">Lambda</text>
<text x="1116.5" y="408" text-anchor="middle" fill="#f4f1f8" font-family="sans-serif" font-size="13" font-weight="600">Reprocess API</text><text x="1116.5" y="424" text-anchor="middle" fill="#9b92b0" font-family="sans-serif" font-size="11">Lambda</text>
<line x1="977" y1="128" x2="977" y2="150" stroke="#6d5f95" stroke-width="2" stroke-dasharray="4 4"/>
  <polygon points="972,150 977,158 982,150" fill="#6d5f95"/>
<line x1="698" y1="278" x2="698" y2="300" stroke="#6d5f95" stroke-width="2" stroke-dasharray="4 4"/>
  <polygon points="693,300 698,308 703,300" fill="#6d5f95"/>
  </g>
  <text x="600" y="742.625" text-anchor="middle" fill="#9b92b0" font-family="sans-serif" font-size="20">GNSS ingest · PyTECGg calibration · REST API &amp; visualization</text>
  <text x="600" y="778.625" text-anchor="middle" fill="#6d5f95" font-family="sans-serif" font-size="18">jajera.github.io/aws-event-driven-serverless-walkthrough</text>
</svg>
